<svg width="17" height="17" viewBox="0 0 17 17" fill="none" xmlns="http://www.w3.org/2000/svg">
<g clip-path="url(#clip0_68_737)">
<path fill-rule="evenodd" clip-rule="evenodd" d="M4.70366 2.76531C5.14275 2.75716 5.5812 2.80217 6.00946 2.89937C6.37004 2.9781 6.71238 3.12459 7.01831 3.33107C7.30085 3.53638 7.52436 3.81241 7.66648 4.13144C7.82986 4.52373 7.90867 4.94606 7.89777 5.37086C7.91632 5.83731 7.79716 6.2989 7.55523 6.69811C7.30065 7.07518 6.94884 7.37628 6.537 7.56952C7.0959 7.72017 7.58266 8.06535 7.90982 8.54283C8.22392 9.04881 8.38175 9.63618 8.36367 10.2314C8.37396 10.706 8.27585 11.1767 8.07672 11.6076C7.89269 11.9835 7.62315 12.3111 7.28975 12.5641C6.94654 12.8144 6.56029 12.9996 6.15023 13.1104C5.72498 13.2281 5.28566 13.2872 4.84444 13.2861H0V2.76531H4.70366ZM4.42414 7.02054C4.76913 7.03476 5.10874 6.93151 5.3874 6.7276C5.52086 6.6088 5.62467 6.46042 5.69055 6.29432C5.75643 6.12824 5.78254 5.94903 5.7668 5.77105C5.77573 5.56317 5.73434 5.35621 5.64614 5.16776C5.57133 5.01771 5.455 4.89231 5.31098 4.80645C5.16512 4.71195 5.00123 4.64872 4.82969 4.62077C4.64356 4.58472 4.45416 4.56832 4.2646 4.57184H2.19464V7.02989H4.42414V7.02054ZM4.5448 11.4997C4.75344 11.5025 4.96164 11.4799 5.16485 11.4326C5.35056 11.3916 5.52667 11.3154 5.68368 11.208C5.83749 11.1008 5.96176 10.9565 6.04499 10.7884C6.14148 10.5741 6.18582 10.3401 6.17436 10.1054C6.19528 9.89151 6.16695 9.67566 6.09154 9.47443C6.01614 9.27313 5.89565 9.09181 5.73932 8.94434C5.40798 8.70032 5.00192 8.57946 4.59105 8.60248H2.19464V11.4997H4.5448Z" fill="#FDFDFD" fill-opacity="0.65"/>
<path fill-rule="evenodd" clip-rule="evenodd" d="M11.4894 11.4607C11.6616 11.6204 11.8645 11.7433 12.0857 11.8221C12.307 11.901 12.542 11.934 12.7764 11.9192C13.1479 11.9286 13.5124 11.8156 13.8134 11.5975C14.0582 11.4382 14.2437 11.2026 14.3409 10.9271H16.0911C15.9046 11.7113 15.4492 12.4053 14.8041 12.8885C14.1852 13.2993 13.4538 13.5073 12.7114 13.4838C12.1815 13.4907 11.6556 13.3911 11.1649 13.1908C10.7211 13.0058 10.323 12.7259 9.99856 12.371C9.67532 11.9991 9.42697 11.5682 9.26724 11.1021C9.08788 10.5811 9.00013 10.0329 9.00778 9.48194C9.00453 8.94014 9.09526 8.40199 9.27591 7.8912C9.51864 7.17275 9.98278 6.54957 10.6016 6.11121C11.2206 5.67285 11.9624 5.44181 12.7207 5.45125C13.2806 5.43955 13.8342 5.57057 14.3295 5.832C14.7771 6.07747 15.1634 6.42125 15.459 6.83746C15.7614 7.27424 15.9782 7.76445 16.0978 8.28202C16.229 8.83783 16.2758 9.41024 16.2366 9.97994H11.0235C10.9812 10.5152 11.1482 11.0461 11.4894 11.4607ZM13.7765 7.45956C13.6306 7.31365 13.4551 7.20065 13.2619 7.12827C13.0687 7.05589 12.8622 7.02576 12.6564 7.03991C12.3833 7.02948 12.1121 7.09001 11.8694 7.21554C11.677 7.32151 11.5071 7.46403 11.3694 7.6352C11.2473 7.7956 11.1564 7.97753 11.1013 8.17145C11.0516 8.33314 11.0206 8.50004 11.0087 8.66883H14.2376C14.2095 8.22886 14.0493 7.80758 13.7778 7.46024L13.7765 7.45956Z" fill="#FDFDFD" fill-opacity="0.65"/>
<path d="M10.5925 3.46777H14.6386V4.50209H10.5925V3.46777Z" fill="#FDFDFD" fill-opacity="0.65"/>
</g>
<defs>
<clipPath id="clip0_68_737">
<rect width="16.25" height="16.25" fill="white"/>
</clipPath>
</defs>
</svg>
