<svg width="17" height="17" viewBox="0 0 17 17" fill="none" xmlns="http://www.w3.org/2000/svg">
<g clip-path="url(#clip0_68_744)">
<path fill-rule="evenodd" clip-rule="evenodd" d="M8.125 16.25C12.6123 16.25 16.25 12.6123 16.25 8.125C16.25 3.63768 12.6123 0 8.125 0C3.63768 0 0 3.63768 0 8.125C0 12.6123 3.63768 16.25 8.125 16.25ZM9.88718 14.7519C9.32493 14.901 8.73424 14.9805 8.125 14.9805C7.20302 14.9805 6.32355 14.7985 5.52057 14.4685C6.28254 11.6559 8.3896 9.6414 10.8035 8.74426C11.2221 10.7732 10.9103 12.949 9.88718 14.7519ZM11.6915 13.9808C12.3463 12.1977 12.4752 10.2336 12.074 8.38155C13.0427 8.18594 14.0308 8.16799 14.9769 8.34647C14.9012 10.7337 13.6049 12.813 11.6915 13.9808ZM14.8879 6.99556C13.8404 6.84193 12.7617 6.88689 11.7085 7.11181C11.5044 6.53929 11.2468 5.98773 10.9398 5.464C11.8056 4.964 12.595 4.3325 13.2708 3.59517C14.0992 4.53546 14.6739 5.70461 14.8879 6.99556ZM12.309 2.69392C11.6994 3.36131 10.9822 3.92886 10.1957 4.37122C9.66469 3.69639 9.05044 3.08881 8.36557 2.56712L8.34905 2.55453L8.33185 2.54308C8.33178 2.54302 8.33029 2.54203 8.32718 2.53983C8.32352 2.53724 8.31865 2.53375 8.31242 2.52922C8.29976 2.52003 8.28411 2.50844 8.26529 2.49436C8.24396 2.4784 8.22257 2.46225 8.19961 2.4449L8.19487 2.44137C8.17632 2.42732 8.15662 2.41244 8.13502 2.39623C8.08837 2.36114 8.03718 2.32296 7.99013 2.28927C7.95729 2.26572 7.91003 2.23242 7.86182 2.20305L7.83121 2.18188C7.76845 2.13843 7.67413 2.07309 7.58855 2.02052C7.50852 1.96444 7.40039 1.90054 7.32956 1.85906C7.26104 1.81892 7.18724 1.77681 7.1414 1.75063L7.10619 1.73051C7.09773 1.72559 7.09042 1.7215 7.08737 1.71981L7.08676 1.71947C7.08141 1.71649 7.07552 1.71322 7.07017 1.71028L7.06299 1.70631C7.0527 1.70068 7.04248 1.69505 7.03185 1.68912C7.01966 1.68234 7.00984 1.67676 7.00267 1.67257L6.99766 1.66911L6.98019 1.65842C6.91688 1.61973 6.85093 1.58441 6.81511 1.56523L6.80191 1.55815L6.78661 1.5499L6.7709 1.54248C6.7369 1.52645 6.68538 1.50189 6.62734 1.47422L6.62597 1.47357C6.60775 1.46489 6.58879 1.45585 6.56964 1.44673C7.06936 1.33081 7.59004 1.26953 8.125 1.26953C9.70023 1.26953 11.1514 1.8008 12.309 2.69392ZM4.76412 2.14849C3.7473 2.72154 2.89141 3.54656 2.28117 4.53886C3.00708 4.90701 3.78675 5.16713 4.58994 5.31012L4.59167 5.31043L4.59339 5.31076C5.58594 5.49291 6.60916 5.48803 7.61089 5.30743C8.07043 5.22446 8.52184 5.1011 8.95971 4.94087C8.54811 4.45404 8.0858 4.01236 7.58002 3.62555C7.54542 3.60153 7.50703 3.57302 7.47561 3.54953C7.45184 3.53176 7.42395 3.51068 7.39639 3.48989L7.39565 3.48934C7.37736 3.47556 7.35935 3.46195 7.34277 3.44952C7.29754 3.4155 7.25644 3.3849 7.22238 3.36053C7.20024 3.34468 7.18758 3.33612 7.18236 3.3326C7.1804 3.33129 7.17945 3.33067 7.17952 3.33064L7.16009 3.31967L7.1372 3.30416C7.10348 3.28131 7.07356 3.26056 7.04607 3.24154C6.98587 3.19989 6.93733 3.16632 6.88837 3.13727L6.85628 3.1182L6.82737 3.0963C6.82825 3.09695 6.82771 3.09663 6.82561 3.09522C6.82053 3.09182 6.80672 3.08267 6.7818 3.06719C6.74832 3.04644 6.70729 3.02194 6.66344 2.99625C6.60124 2.95984 6.54459 2.92751 6.49978 2.90195L6.49447 2.89892C6.47577 2.88823 6.45925 2.87881 6.44544 2.87084L6.44407 2.87005L6.43323 2.86406L6.42809 2.86125C6.41792 2.85566 6.40433 2.84817 6.39049 2.84047C6.37429 2.83146 6.35464 2.82039 6.33552 2.80919C6.32506 2.80308 6.30556 2.7916 6.28373 2.77743C6.25689 2.76144 6.2281 2.74597 6.19382 2.72756L6.19229 2.72672C6.15129 2.70732 6.10025 2.683 6.0461 2.65715C5.94418 2.60856 5.83109 2.55466 5.7526 2.51815L5.74415 2.51422L5.70868 2.49649C5.58438 2.43887 5.43559 2.38245 5.26895 2.31927C5.23267 2.30552 5.19498 2.29122 5.15707 2.27675C5.05429 2.23986 4.94756 2.20627 4.83576 2.17108C4.8122 2.16367 4.78814 2.1561 4.76412 2.14849ZM1.70216 5.7229C2.53869 6.14504 3.43492 6.44291 4.35706 6.60728C5.51136 6.81891 6.69404 6.81186 7.84503 6.60435C8.5001 6.48608 9.13968 6.29769 9.75298 6.04665C10.0259 6.50043 10.2555 6.97856 10.4381 7.475C7.68442 8.46686 5.28132 10.7079 4.33091 13.8357C2.48553 12.6072 1.26953 10.5081 1.26953 8.125C1.26953 7.27986 1.42246 6.47044 1.70216 5.7229Z" fill="#FDFDFD" fill-opacity="0.65"/>
</g>
<defs>
<clipPath id="clip0_68_744">
<rect width="16.25" height="16.25" fill="white"/>
</clipPath>
</defs>
</svg>
