<svg width="150" height="150" viewBox="0 0 150 150" fill="none" xmlns="http://www.w3.org/2000/svg">
<path d="M72.0219 147.617C62.2136 114.09 35.9098 87.786 2.38262 77.9778C1.03908 77.5852 0.148875 76.3989 0.149903 74.9999C0.149903 73.6003 1.03908 72.4146 2.38159 72.0219C35.9104 62.2147 62.2131 35.9099 72.0213 2.38213C72.415 1.03859 73.6003 0.149414 74.9993 0.149414C76.3994 0.149414 77.5846 1.03859 77.9773 2.38213C87.7855 35.9099 114.089 62.2147 147.617 72.0219C148.961 72.4146 149.85 73.6008 149.85 74.9999C149.85 76.3999 148.961 77.5852 147.617 77.9778C114.09 87.786 87.786 114.09 77.9773 147.617C77.5846 148.96 76.3994 149.85 74.9993 149.85C73.5992 149.85 72.414 148.961 72.0213 147.617H72.0219Z" fill="#5495FB"/>
<mask id="mask0_66_97" style="mask-type:luminance" maskUnits="userSpaceOnUse" x="0" y="0" width="150" height="150">
<path d="M150 0H0V150H150V0Z" fill="url(#paint0_linear_66_97)"/>
</mask>
<g mask="url(#mask0_66_97)">
<path d="M72.0219 147.617C62.2136 114.09 35.9098 87.786 2.38262 77.9778C1.03908 77.5852 0.148875 76.3989 0.149903 74.9999C0.149903 73.6003 1.03908 72.4146 2.38159 72.0219C35.9104 62.2147 62.2131 35.9099 72.0213 2.38213C72.415 1.03859 73.6003 0.149414 74.9993 0.149414C76.3994 0.149414 77.5846 1.03859 77.9773 2.38213C87.7855 35.9099 114.089 62.2147 147.617 72.0219C148.961 72.4146 149.85 73.6008 149.85 74.9999C149.85 76.3999 148.961 77.5852 147.617 77.9778C114.09 87.786 87.786 114.09 77.9773 147.617C77.5846 148.96 76.3994 149.85 74.9993 149.85C73.5992 149.85 72.414 148.961 72.0213 147.617H72.0219Z" fill="#24B970"/>
</g>
<mask id="mask1_66_97" style="mask-type:luminance" maskUnits="userSpaceOnUse" x="0" y="0" width="150" height="150">
<path d="M150 0H0V150H150V0Z" fill="url(#paint1_linear_66_97)"/>
</mask>
<g mask="url(#mask1_66_97)">
<path d="M72.0219 147.617C62.2136 114.09 35.9098 87.786 2.38262 77.9778C1.03908 77.5852 0.148875 76.3989 0.149903 74.9999C0.149903 73.6003 1.03908 72.4146 2.38159 72.0219C35.9104 62.2147 62.2131 35.9099 72.0213 2.38213C72.415 1.03859 73.6003 0.149414 74.9993 0.149414C76.3994 0.149414 77.5846 1.03859 77.9773 2.38213C87.7855 35.9099 114.089 62.2147 147.617 72.0219C148.961 72.4146 149.85 73.6008 149.85 74.9999C149.85 76.3999 148.961 77.5852 147.617 77.9778C114.09 87.786 87.786 114.09 77.9773 147.617C77.5846 148.96 76.3994 149.85 74.9993 149.85C73.5992 149.85 72.414 148.961 72.0213 147.617H72.0219Z" fill="#F94544"/>
</g>
<mask id="mask2_66_97" style="mask-type:luminance" maskUnits="userSpaceOnUse" x="0" y="0" width="150" height="150">
<path d="M150 0H0V150H150V0Z" fill="url(#paint2_linear_66_97)"/>
</mask>
<g mask="url(#mask2_66_97)">
<path d="M72.0219 147.617C62.2136 114.09 35.9098 87.786 2.38262 77.9778C1.03908 77.5852 0.148875 76.3989 0.149903 74.9999C0.149903 73.6003 1.03908 72.4146 2.38159 72.0219C35.9104 62.2147 62.2131 35.9099 72.0213 2.38213C72.415 1.03859 73.6003 0.149414 74.9993 0.149414C76.3994 0.149414 77.5846 1.03859 77.9773 2.38213C87.7855 35.9099 114.089 62.2147 147.617 72.0219C148.961 72.4146 149.85 73.6008 149.85 74.9999C149.85 76.3999 148.961 77.5852 147.617 77.9778C114.09 87.786 87.786 114.09 77.9773 147.617C77.5846 148.96 76.3994 149.85 74.9993 149.85C73.5992 149.85 72.414 148.961 72.0213 147.617H72.0219Z" fill="#F5BB19"/>
</g>
<defs>
<linearGradient id="paint0_linear_66_97" x1="56.8001" y1="122.05" x2="101.433" y2="83.531" gradientUnits="userSpaceOnUse">
<stop stop-color="white"/>
<stop offset="1" stop-color="white" stop-opacity="0"/>
</linearGradient>
<linearGradient id="paint1_linear_66_97" x1="41.866" y1="38.7975" x2="73.4267" y2="76.3235" gradientUnits="userSpaceOnUse">
<stop stop-color="white"/>
<stop offset="1" stop-color="white" stop-opacity="0"/>
</linearGradient>
<linearGradient id="paint2_linear_66_97" x1="13.1722" y1="68.1996" x2="83.091" y2="68.8569" gradientUnits="userSpaceOnUse">
<stop stop-color="white"/>
<stop offset="1" stop-color="white" stop-opacity="0"/>
</linearGradient>
</defs>
</svg>
