<svg width="17" height="17" viewBox="0 0 17 17" fill="none" xmlns="http://www.w3.org/2000/svg">
<g clip-path="url(#clip0_68_732)">
<path d="M15.0471 0H1.1997C0.536377 0 0 0.523682 0 1.17114V15.0757C0 15.7232 0.536377 16.25 1.1997 16.25H15.0471C15.7104 16.25 16.25 15.7232 16.25 15.0788V1.17114C16.25 0.523682 15.7104 0 15.0471 0ZM4.82104 13.8474H2.40893V6.09057H4.82104V13.8474ZM3.61499 5.03369C2.84057 5.03369 2.21534 4.40845 2.21534 3.6372C2.21534 2.86597 2.84057 2.24072 3.61499 2.24072C4.38623 2.24072 5.01147 2.86597 5.01147 3.6372C5.01147 4.40527 4.38623 5.03369 3.61499 5.03369ZM13.8474 13.8474H11.4384V10.0769C11.4384 9.17868 11.4226 8.02026 10.1848 8.02026C8.93114 8.02026 8.74074 9.00094 8.74074 10.0135V13.8474H6.33496V6.09057H8.64547V7.15061H8.67723C8.99783 6.54126 9.78494 5.89698 10.9561 5.89698C13.3967 5.89698 13.8474 7.50296 13.8474 9.59129V13.8474Z" fill="#FDFDFD" fill-opacity="0.65"/>
</g>
<defs>
<clipPath id="clip0_68_732">
<rect width="16.25" height="16.25" fill="white"/>
</clipPath>
</defs>
</svg>
