<svg width="179" height="150" viewBox="0 0 179 150" fill="none" xmlns="http://www.w3.org/2000/svg">
<g clip-path="url(#clip0_67_155)">
<path d="M168.414 114.177C168.877 115.382 168.497 116.39 167.47 117.219C157.853 124.979 147.759 132.018 136.771 137.714L127.597 142.464C129.49 143.978 131.625 144.405 133.893 144.32C136.375 144.227 138.454 143.084 140.374 141.616C142.67 139.86 144.84 137.919 147.252 136.345C153.09 132.536 159.383 132.88 164.906 137.176C167.252 139.001 169.408 141.086 171.842 142.775C173.019 143.592 174.526 144.037 175.97 144.357L176.29 144.426C178.043 144.796 179.107 145.681 178.991 147.199C178.875 148.704 177.685 149.584 175.888 149.467C172.081 149.221 169.097 147.253 166.3 144.872C164.553 143.386 162.867 141.802 160.982 140.513C157.486 138.124 153.778 138.054 150.216 140.348C148.118 141.7 146.21 143.355 144.246 144.91C141.08 147.418 137.664 149.264 133.496 149.327C128.925 149.397 125.245 147.34 121.875 144.515C120.67 143.504 119.476 142.478 118.247 141.496C113.642 137.814 108.924 137.816 104.303 141.499C103.765 141.929 103.231 142.364 102.7 142.803L101.638 143.679C100.755 144.413 99.8576 145.128 98.9463 145.825C93.2896 150.112 86.8113 150.316 80.9498 146.303C78.8172 144.843 76.8726 143.106 74.8386 141.499C70.2168 137.851 66.3808 137.861 61.6765 141.484L61.2919 141.781L60.1382 142.675C58.5999 143.866 57.0512 145.047 55.4255 146.106C49.3003 150.099 43.0654 149.932 36.9773 146.074C34.458 144.477 32.1583 142.532 29.7718 140.725L29.4132 140.454C28.4608 139.741 27.5197 139.011 26.5422 138.335C25.1787 137.391 23.7103 137.128 22.2336 138.026C19.6241 139.614 17.0454 141.253 14.4611 142.882C12.0187 144.421 9.65882 146.113 7.11926 147.468C5.7432 148.201 4.09024 148.542 2.5219 148.743C1.06193 148.93 0.0578486 147.843 0.00191108 146.472C-0.052628 145.122 0.826989 144.274 2.19396 143.885L2.27367 143.863C3.72665 143.473 5.22368 142.978 6.48437 142.184C10.0413 139.942 13.4884 137.524 16.9747 135.169C17.074 135.103 17.1314 134.976 17.2495 134.824L15.0855 130.72C14.362 129.351 13.6411 127.98 12.9228 126.606C11.6642 124.196 12.483 122.58 15.1861 122.386C22.4741 121.864 29.767 121.416 37.0577 120.946L79.0255 118.246C88.9453 117.606 98.8644 116.96 108.784 116.318C122.772 115.413 136.761 114.509 150.75 113.606C154.47 113.366 158.19 113.132 161.91 112.888L165.629 112.64C166.91 112.554 167.938 112.942 168.414 114.177ZM157.772 118.438L157.646 118.131L18.7766 127.094L19.1193 127.736C20.0198 129.427 20.817 130.954 21.6875 132.437C21.7679 132.574 22.049 132.602 22.3433 132.612L22.644 132.619L22.7342 132.623L22.8195 132.628C24.0264 132.717 25.3451 132.503 26.417 132.928C28.1273 133.605 29.7621 134.575 31.2696 135.644C33.9686 137.56 36.4662 139.767 39.1987 141.628C44.0555 144.933 48.6291 144.835 53.4068 141.483C55.4227 140.069 57.3351 138.506 59.3327 137.063C65.5781 132.553 71.4949 132.646 77.5914 137.355C79.373 138.732 81.0714 140.217 82.8495 141.597C87.3092 145.058 91.8338 145.07 96.2703 141.632C97.7478 140.488 99.1546 139.251 100.605 138.07C107.182 132.714 113.848 132.198 120.316 136.975L120.512 137.121C122.581 138.685 124.122 138.606 126.184 137.575L127.188 137.072C136.388 132.448 145.414 127.535 153.746 121.429C155.094 120.44 156.43 119.435 157.772 118.438ZM28.8195 0.473297C43.8499 7.27096 57.3476 16.4154 69.6154 27.406C84.8794 41.0826 96.9101 57.2322 105.796 75.7025C110.472 85.4245 114.11 95.5221 115.781 106.244L115.86 106.769L115.982 107.609C115.984 109.684 114.326 110.903 112.598 110.203C104.017 106.727 95.1565 104.316 86.0002 102.939C73.9002 101.12 61.952 101.573 50.1883 105.123C42.3872 107.478 34.9663 110.69 28.0706 115.073C26.7974 115.882 25.4472 115.741 24.6165 114.75C23.7523 113.722 23.7537 112.481 24.7515 111.395C31.9555 103.553 36.1473 94.1364 38.9267 84.0107C41.6418 74.117 42.6333 64.0074 42.025 53.7794C41.5684 46.0922 39.7294 38.6539 37.3227 31.3523C34.2091 21.9058 30.169 12.8756 25.2975 4.21418C24.5018 2.7983 24.5165 1.69573 25.3213 0.79012C26.1541 -0.147731 27.2267 -0.247264 28.8195 0.473297ZM75.1567 18.1312C76.5503 18.5385 78.4277 18.9408 80.1939 19.6291C87.2441 22.3803 93.3182 26.745 99.105 31.5135C108.509 39.263 117.12 47.8347 124.822 57.2883C130.181 63.8679 134.578 71.1058 138.586 78.5763C143.131 87.0485 147.046 95.8067 150.368 104.829L150.599 105.459C150.687 105.699 150.777 105.938 150.858 106.18C151.208 107.223 151.165 108.232 150.349 109.029C149.517 109.843 148.519 109.897 147.465 109.483L147.392 109.454C145.881 108.831 144.35 108.257 142.843 107.629L142.199 107.356C137.957 105.531 133.598 105.166 129.109 106.188C128.695 106.283 128.276 106.354 127.856 106.419C126.191 106.676 125.15 106.024 124.696 104.407C120.323 88.8562 114.159 74.049 106.355 59.921L105.965 59.2172C100.933 50.2053 95.1733 41.7303 87.6874 34.5303C83.2677 30.2777 78.6165 26.314 73.4793 22.9474C72.2892 22.1672 71.8431 21.0843 72.2347 19.9025C72.6207 18.7404 73.5206 18.2833 75.1567 18.1312ZM33.3141 8.26348C33.3281 8.65671 33.4337 8.96442 33.5763 9.2518C36.843 15.8567 39.684 22.6411 41.9907 29.6413C44.1793 36.2819 45.8574 43.0502 46.6615 50.0104C47.5614 57.8006 47.1915 65.5712 46.1252 73.3193C44.7218 83.5235 41.8984 93.2834 37.029 102.399L36.4627 103.461L35.604 105.075C35.7837 105.124 35.8753 105.182 35.9341 105.159C36.4472 104.957 36.9565 104.745 37.4619 104.524C47.7963 99.9759 58.565 97.2296 69.8755 96.9471C82.7901 96.6247 95.2991 98.9588 107.514 103.024L108.349 103.302C108.953 103.501 109.597 103.706 110.432 103.977C105.484 82.2633 95.2257 63.5995 81.3994 46.8107C68.0702 30.6261 51.8581 17.9798 33.3141 8.26348ZM94.6803 34.5899L94.8439 34.7756L95.1691 35.1387C95.2949 35.2803 95.4089 35.4135 95.5159 35.5523C96.2767 36.5364 97.047 37.5131 97.8268 38.4822L99.0987 40.0677C101.009 42.4537 102.895 44.8565 104.554 47.4065C115.046 63.5378 122.761 80.9805 128.385 99.3626L128.555 99.9198C128.847 100.882 129.248 101.153 130.184 101.011L130.249 101.001C134.456 100.298 138.568 100.663 142.555 102.203L142.761 102.283C143.142 102.435 143.549 102.519 144.288 102.735C138.886 89.2249 132.502 76.6488 124.424 64.9256C117.439 54.7887 98.7344 36.7901 94.6796 34.5892" fill="white"/>
</g>
<defs>
<clipPath id="clip0_67_155">
<rect width="179" height="150" fill="white"/>
</clipPath>
</defs>
</svg>
